REM DIRINDEX 1\2,1\4,1\5,1\6,1\7,1\3\8,1\3\9,1\3\10
REM DIRNAME folder01,folder02,folder03,folder04,folder05,folder06,folder07,folder08,folder09,folder10
TITLE ""
FILE "DB4500_5th_3B_13.mp3" MP3
  TRACK 01 AUDIO
    TITLE "0:"
    INDEX 01 00:00:00
  TRACK 02 AUDIO
    TITLE "8:cjc113_2268"
    INDEX 01 00:00:03
  TRACK 03 AUDIO
    TITLE "0:"
    INDEX 01 00:01:30
  TRACK 04 AUDIO
    TITLE "9:cjc113_2269"
    INDEX 01 00:01:54
  TRACK 05 AUDIO
    TITLE "0:"
    INDEX 01 00:04:13
  TRACK 06 AUDIO
    TITLE "10:cjc113_2270"
    INDEX 01 00:04:35
  TRACK 07 AUDIO
    TITLE "0:"
    INDEX 01 00:07:21
  TRACK 08 AUDIO
    TITLE "8:cjc113_2271"
    INDEX 01 00:07:64
  TRACK 09 AUDIO
    TITLE "0:"
    INDEX 01 00:09:16
  TRACK 10 AUDIO
    TITLE "9:cjc113_2272"
    INDEX 01 00:09:38
  TRACK 11 AUDIO
    TITLE "0:"
    INDEX 01 00:11:42
  TRACK 12 AUDIO
    TITLE "10:cjc113_2273"
    INDEX 01 00:11:64
  TRACK 13 AUDIO
    TITLE "0:"
    INDEX 01 00:15:36
  TRACK 14 AUDIO
    TITLE "8:cjc113_2274"
    INDEX 01 00:16:10
  TRACK 15 AUDIO
    TITLE "0:"
    INDEX 01 00:17:21
  TRACK 16 AUDIO
    TITLE "9:cjc113_2275"
    INDEX 01 00:17:45
  TRACK 17 AUDIO
    TITLE "0:"
    INDEX 01 00:19:42
  TRACK 18 AUDIO
    TITLE "10:cjc113_2276"
    INDEX 01 00:19:67
  TRACK 19 AUDIO
    TITLE "0:"
    INDEX 01 00:23:03
  TRACK 20 AUDIO
    TITLE "8:cjc113_2277"
    INDEX 01 00:23:50
  TRACK 21 AUDIO
    TITLE "0:"
    INDEX 01 00:25:07
  TRACK 22 AUDIO
    TITLE "9:cjc113_2278"
    INDEX 01 00:25:29
  TRACK 23 AUDIO
    TITLE "0:"
    INDEX 01 00:27:36
  TRACK 24 AUDIO
    TITLE "10:cjc113_2279"
    INDEX 01 00:27:59
  TRACK 25 AUDIO
    TITLE "0:"
    INDEX 01 00:31:61
  TRACK 26 AUDIO
    TITLE "8:cjc113_2280"
    INDEX 01 00:32:33
  TRACK 27 AUDIO
    TITLE "0:"
    INDEX 01 00:33:54
  TRACK 28 AUDIO
    TITLE "9:cjc113_2281"
    INDEX 01 00:34:02
  TRACK 29 AUDIO
    TITLE "0:"
    INDEX 01 00:36:58
  TRACK 30 AUDIO
    TITLE "10:cjc113_2282"
    INDEX 01 00:37:05
  TRACK 31 AUDIO
    TITLE "0:"
    INDEX 01 00:41:12
  TRACK 32 AUDIO
    TITLE "8:cjc113_2283"
    INDEX 01 00:41:63
  TRACK 33 AUDIO
    TITLE "0:"
    INDEX 01 00:43:09
  TRACK 34 AUDIO
    TITLE "9:cjc113_2284"
    INDEX 01 00:43:33
  TRACK 35 AUDIO
    TITLE "0:"
    INDEX 01 00:44:63
  TRACK 36 AUDIO
    TITLE "10:cjc113_2285"
    INDEX 01 00:45:12
  TRACK 37 AUDIO
    TITLE "0:"
    INDEX 01 00:49:61
  TRACK 38 AUDIO
    TITLE "8:cjc113_2286"
    INDEX 01 00:50:33
  TRACK 39 AUDIO
    TITLE "0:"
    INDEX 01 00:51:52
  TRACK 40 AUDIO
    TITLE "9:cjc113_2287"
    INDEX 01 00:52:00
  TRACK 41 AUDIO
    TITLE "0:"
    INDEX 01 00:53:25
  TRACK 42 AUDIO
    TITLE "10:cjc113_2288"
    INDEX 01 00:53:47
  TRACK 43 AUDIO
    TITLE "0:"
    INDEX 01 00:57:66
  TRACK 44 AUDIO
    TITLE "8:cjc113_2289"
    INDEX 01 00:58:38
  TRACK 45 AUDIO
    TITLE "0:"
    INDEX 01 00:59:45
  TRACK 46 AUDIO
    TITLE "9:cjc113_2290"
    INDEX 01 00:59:67
  TRACK 47 AUDIO
    TITLE "0:"
    INDEX 01 01:01:03
  TRACK 48 AUDIO
    TITLE "10:cjc113_2291"
    INDEX 01 01:01:25
  TRACK 49 AUDIO
    TITLE "0:"
    INDEX 01 01:04:27
  TRACK 50 AUDIO
    TITLE "8:cjc113_2292"
    INDEX 01 01:04:74
  TRACK 51 AUDIO
    TITLE "0:"
    INDEX 01 01:06:10
  TRACK 52 AUDIO
    TITLE "9:cjc113_2293"
    INDEX 01 01:06:32
  TRACK 53 AUDIO
    TITLE "0:"
    INDEX 01 01:07:39
  TRACK 54 AUDIO
    TITLE "10:cjc113_2294"
    INDEX 01 01:07:63
  TRACK 55 AUDIO
    TITLE "0:"
    INDEX 01 01:11:09
  TRACK 56 AUDIO
    TITLE "8:cjc113_2295"
    INDEX 01 01:11:60
  TRACK 57 AUDIO
    TITLE "0:"
    INDEX 01 01:12:60
  TRACK 58 AUDIO
    TITLE "9:cjc113_2296"
    INDEX 01 01:13:06
  TRACK 59 AUDIO
    TITLE "0:"
    INDEX 01 01:14:17
  TRACK 60 AUDIO
    TITLE "10:cjc113_2297"
    INDEX 01 01:14:39
  TRACK 61 AUDIO
    TITLE "0:"
    INDEX 01 01:17:63
  TRACK 62 AUDIO
    TITLE "8:cjc113_2298"
    INDEX 01 01:18:35
  TRACK 63 AUDIO
    TITLE "0:"
    INDEX 01 01:19:60
  TRACK 64 AUDIO
    TITLE "9:cjc113_2299"
    INDEX 01 01:20:12
  TRACK 65 AUDIO
    TITLE "0:"
    INDEX 01 01:21:31
  TRACK 66 AUDIO
    TITLE "10:cjc113_2300"
    INDEX 01 01:21:55
  TRACK 67 AUDIO
    TITLE "0:"
    INDEX 01 01:24:12
  TRACK 68 AUDIO
    TITLE "8:cjc113_2301"
    INDEX 01 01:24:63
  TRACK 69 AUDIO
    TITLE "0:"
    INDEX 01 01:25:57
  TRACK 70 AUDIO
    TITLE "9:cjc113_2302"
    INDEX 01 01:26:05
  TRACK 71 AUDIO
    TITLE "0:"
    INDEX 01 01:27:16
  TRACK 72 AUDIO
    TITLE "10:cjc113_2303"
    INDEX 01 01:27:38
  TRACK 73 AUDIO
    TITLE "0:"
    INDEX 01 01:30:36
  TRACK 74 AUDIO
    TITLE "8:cjc113_2304"
    INDEX 01 01:31:10
  TRACK 75 AUDIO
    TITLE "0:"
    INDEX 01 01:32:21
  TRACK 76 AUDIO
    TITLE "9:cjc113_2305"
    INDEX 01 01:32:45
  TRACK 77 AUDIO
    TITLE "0:"
    INDEX 01 01:33:52
  TRACK 78 AUDIO
    TITLE "10:cjc113_2306"
    INDEX 01 01:33:74
  TRACK 79 AUDIO
    TITLE "0:"
    INDEX 01 01:37:52
  TRACK 80 AUDIO
    TITLE "8:cjc113_2307"
    INDEX 01 01:38:24
  TRACK 81 AUDIO
    TITLE "0:"
    INDEX 01 01:39:33
  TRACK 82 AUDIO
    TITLE "9:cjc113_2308"
    INDEX 01 01:39:55
  TRACK 83 AUDIO
    TITLE "0:"
    INDEX 01 01:41:03
  TRACK 84 AUDIO
    TITLE "10:cjc113_2309"
    INDEX 01 01:41:24
  TRACK 85 AUDIO
    TITLE "0:"
    INDEX 01 01:44:03
